<svg xmlns="http://www.w3.org/2000/svg" width="48" height="51.761" viewBox="0 0 48 51.761"><g transform="translate(-246.192 -2462)"><path d="M30.834.13c-8.232-.941-9.6,3.578-16.567,5.161-3.965.9-8.838-.608-12.01,3.066C-.125,11.12-.5,15.42.566,18.8c.5,1.578,2.14,3.07,2.515,4.618.771,3.2-.746,5.683-1.389,8.872-.74,3.677-.649,7.357,2.588,10.308,3.158,2.88,7.688,2.628,11.345,4.6,3.822,2.065,5.185,5.318,10.225,4.4,4.007-.727,5.7-4.355,8.763-6.214,7.831-4.749,14.765-4.692,13.15-15.762-.675-4.633-3.14-8.884-3.42-13.412C43.84,8.168,41.759,1.378,30.834.13Z" transform="translate(246.194 2461.998)" fill="#b2f5ea"/></g></svg>